<?xml version="1.0" encoding="UTF-8" standalone="no"?>
<!-- Created with Inkscape (http://www.inkscape.org/) -->

<svg
   version="1.1"
   id="svg62"
   width="256"
   height="256"
   viewBox="0 0 256 256"
   sodipodi:docname="binocular.svg"
   inkscape:version="1.2.2 (b0a8486541, 2022-12-01)"
   xmlns:inkscape="http://www.inkscape.org/namespaces/inkscape"
   xmlns:sodipodi="http://sodipodi.sourceforge.net/DTD/sodipodi-0.dtd"
   xmlns="http://www.w3.org/2000/svg"
   xmlns:svg="http://www.w3.org/2000/svg">
  <defs
     id="defs66" />
  <sodipodi:namedview
     id="namedview64"
     pagecolor="#ffffff"
     bordercolor="#000000"
     borderopacity="0.25"
     inkscape:showpageshadow="2"
     inkscape:pageopacity="0.0"
     inkscape:pagecheckerboard="0"
     inkscape:deskcolor="#d1d1d1"
     showgrid="false"
     showguides="true"
     inkscape:zoom="1.4142136"
     inkscape:cx="144.60333"
     inkscape:cy="124.80434"
     inkscape:window-width="1854"
     inkscape:window-height="1131"
     inkscape:window-x="66"
     inkscape:window-y="32"
     inkscape:window-maximized="1"
     inkscape:current-layer="g68">
    <sodipodi:guide
       position="281.71428,106.4723"
       orientation="1,0"
       id="guide176"
       inkscape:locked="false" />
    <sodipodi:guide
       position="122.68317,146.86927"
       orientation="1,0"
       id="guide315"
       inkscape:locked="false" />
    <sodipodi:guide
       position="220.86315,55.848251"
       orientation="0,-1"
       id="guide317"
       inkscape:locked="false" />
    <sodipodi:guide
       position="345.63354,96.756571"
       orientation="0,-1"
       id="guide319"
       inkscape:locked="false" />
  </sodipodi:namedview>
  <g
     inkscape:groupmode="layer"
     inkscape:label="Image"
     id="g68"
     transform="translate(-61.404297,-173.13672)">
    <path
       id="path230"
       style="opacity:1;fill:#4a7c7d;fill-opacity:1;stroke:none;stroke-width:0.91843"
       d="m 156.75735,229.20738 a 20.880245,21.155432 0 0 0 -14.53933,6.0446 l 0.0244,-0.0968 -11.78654,11.54755 0.0933,0.0375 a 55.061811,55.78749 0 0 0 -14.42943,2.67865 55.061811,55.78749 0 0 0 -18.921459,10.97798 l -0.04363,-0.034 c -0.0027,-0.008 -0.0018,-0.004 -0.0045,-0.0122 l -0.0052,0.005 h -8.93e-4 l -16.831569,14.84548 0.007,0.006 a 55.061811,55.78749 0 0 0 -18.915204,42.07149 55.061811,55.78749 0 0 0 55.061745,55.78744 55.061811,55.78749 0 0 0 54.56283,-48.72232 28.752015,29.130948 0 0 0 16.18524,5.11044 29.75315,29.130948 0 0 0 16.74871,-5.11044 56.979043,55.78749 0 0 0 56.46255,48.72232 56.979043,55.78749 0 0 0 56.97893,-55.78744 56.979043,55.78749 0 0 0 -19.57389,-42.07151 l 0.007,-0.006 -17.41684,-14.84548 h -0.002 l -0.005,-0.005 c -0.003,0.008 -0.002,0.004 -0.004,0.0122 l -0.0454,0.034 a 56.979043,55.78749 0 0 0 -19.57999,-10.97798 56.979043,55.78749 0 0 0 -14.93183,-2.67865 l 0.0968,-0.0375 -12.19737,-11.54755 0.0253,0.0968 a 21.607287,21.155432 0 0 0 -15.04522,-6.04461 21.607287,21.155432 0 0 0 -20.29872,13.91306 21.607287,21.155432 0 0 0 -11.21872,-3.1104 20.880245,21.155432 0 0 0 -10.84104,3.1104 20.880245,21.155432 0 0 0 -19.61575,-13.91306 z m -40.29127,49.35818 a 38.209834,38.713419 0 0 1 38.20924,38.71339 38.209834,38.713419 0 0 1 -38.20924,38.71339 38.209834,38.713419 0 0 1 -38.210119,-38.71339 38.209834,38.713419 0 0 1 38.210119,-38.71339 z m 143.95933,0 a 39.540286,38.713419 0 0 1 39.54028,38.71339 39.540286,38.713419 0 0 1 -39.54028,38.71339 39.540286,38.713419 0 0 1 -39.5394,-38.71339 39.540286,38.713419 0 0 1 39.5394,-38.71339 z m -73.21126,6.11788 a 15.973431,15.639394 0 0 1 15.97329,15.64009 15.973431,15.639394 0 0 1 -15.97329,15.63922 15.435957,15.639394 0 0 1 -15.43599,-15.63922 15.435957,15.639394 0 0 1 15.43599,-15.64009 z" />
  </g>
</svg>
