<?xml version="1.0" encoding="UTF-8" standalone="no"?>
<!-- Created with Inkscape (http://www.inkscape.org/) -->

<svg
   version="1.1"
   id="svg62"
   width="573.23828"
   height="322.13086"
   viewBox="0 0 573.23828 322.13086"
   sodipodi:docname="binocular.svg"
   inkscape:version="1.2.2 (b0a8486541, 2022-12-01)"
   xmlns:inkscape="http://www.inkscape.org/namespaces/inkscape"
   xmlns:sodipodi="http://sodipodi.sourceforge.net/DTD/sodipodi-0.dtd"
   xmlns="http://www.w3.org/2000/svg"
   xmlns:svg="http://www.w3.org/2000/svg">
  <defs
     id="defs66" />
  <sodipodi:namedview
     id="namedview64"
     pagecolor="#ffffff"
     bordercolor="#000000"
     borderopacity="0.25"
     inkscape:showpageshadow="2"
     inkscape:pageopacity="0.0"
     inkscape:pagecheckerboard="0"
     inkscape:deskcolor="#d1d1d1"
     showgrid="false"
     showguides="true"
     inkscape:zoom="1.4142136"
     inkscape:cx="14.495689"
     inkscape:cy="124.09724"
     inkscape:window-width="1854"
     inkscape:window-height="1131"
     inkscape:window-x="0"
     inkscape:window-y="0"
     inkscape:window-maximized="1"
     inkscape:current-layer="g68">
    <sodipodi:guide
       position="281.71428,172.60316"
       orientation="1,0"
       id="guide176"
       inkscape:locked="false" />
    <sodipodi:guide
       position="122.68317,213.00013"
       orientation="1,0"
       id="guide315"
       inkscape:locked="false" />
    <sodipodi:guide
       position="220.86315,121.97911"
       orientation="0,-1"
       id="guide317"
       inkscape:locked="false" />
    <sodipodi:guide
       position="345.63354,162.88743"
       orientation="0,-1"
       id="guide319"
       inkscape:locked="false" />
  </sodipodi:namedview>
  <g
     inkscape:groupmode="layer"
     inkscape:label="Image"
     id="g68"
     transform="translate(-61.404297,-173.13672)">
    <path
       id="path230"
       style="opacity:1;fill:#4a7c7d;fill-opacity:1;stroke:none;stroke-width:2.05656"
       d="m 274.91992,173.13672 a 46.755295,47.371498 0 0 0 -32.55664,13.53516 l 0.0547,-0.2168 -26.39258,25.85742 0.20899,0.084 a 123.29507,124.92002 0 0 0 -32.31055,5.99805 123.29507,124.92002 0 0 0 -42.36914,24.58203 l -0.0977,-0.0762 c -0.006,-0.0181 -0.004,-0.009 -0.01,-0.0273 l -0.0117,0.0117 h -0.002 l -37.68945,33.24218 0.0156,0.0137 a 123.29507,124.92002 0 0 0 -42.355153,94.207 123.29507,124.92002 0 0 0 123.294923,124.91992 123.29507,124.92002 0 0 0 122.17773,-109.09961 64.381859,65.23037 0 0 0 36.24219,11.44336 66.623611,65.23037 0 0 0 37.50391,-11.44336 127.58816,124.92002 0 0 0 126.43164,109.09961 127.58816,124.92002 0 0 0 127.58789,-124.91992 127.58816,124.92002 0 0 0 -43.83008,-94.20704 l 0.0156,-0.0137 -39,-33.24218 h -0.004 l -0.0117,-0.0117 c -0.006,0.0183 -0.004,0.009 -0.01,0.0273 l -0.10156,0.0762 a 127.58816,124.92002 0 0 0 -43.84375,-24.58203 127.58816,124.92002 0 0 0 -33.43554,-5.99805 l 0.21679,-0.084 -27.3125,-25.85742 0.0566,0.2168 a 48.383297,47.371498 0 0 0 -33.68945,-13.53516 48.383297,47.371498 0 0 0 -45.45313,31.1543 48.383297,47.371498 0 0 0 -25.12109,-6.96485 46.755295,47.371498 0 0 0 -24.27539,6.96485 46.755295,47.371498 0 0 0 -43.92383,-31.1543 z m -90.2207,110.52344 a 85.559921,86.687553 0 0 1 85.55859,86.6875 85.559921,86.687553 0 0 1 -85.55859,86.6875 85.559921,86.687553 0 0 1 -85.560548,-86.6875 85.559921,86.687553 0 0 1 85.560548,-86.6875 z m 322.35547,0 a 88.539085,86.687553 0 0 1 88.53906,86.6875 88.539085,86.687553 0 0 1 -88.53906,86.6875 88.539085,86.687553 0 0 1 -88.53711,-86.6875 88.539085,86.687553 0 0 1 88.53711,-86.6875 z m -163.93555,13.69922 a 35.7679,35.01992 0 0 1 35.76758,35.02148 35.7679,35.01992 0 0 1 -35.76758,35.01953 34.564381,35.01992 0 0 1 -34.56445,-35.01953 34.564381,35.01992 0 0 1 34.56445,-35.02148 z" />
  </g>
</svg>
